<?xml version="1.0" encoding="utf-8"?>
<!-- Svg Vector Icons : http://www.onlinewebfonts.com/icon -->
<!DOCTYPE svg PUBLIC "-//W3C//DTD SVG 1.1//EN" "http://www.w3.org/Graphics/SVG/1.1/DTD/svg11.dtd">
<svg version="1.1" xmlns="http://www.w3.org/2000/svg" xmlns:xlink="http://www.w3.org/1999/xlink" x="0px" y="0px" viewBox="0 0 1000 1000" enable-background="new 0 0 1000 1000" xml:space="preserve">
<metadata> Svg Vector Icons : http://www.onlinewebfonts.com/icon </metadata>
<g><path d="M990,500c0-270.6-219.4-490-490-490C229.4,10,10,229.4,10,500c0,270.6,219.4,490,490,490c110.8,0,213-38.3,294-100.1c4.3-4.3,6.4-8.5,6.4-14.9c0-12.8-10.7-21.3-21.3-21.3c-6.4,0-12.8,2.1-14.9,6.4l0,0c-74.6,53.3-164,87.3-262,87.3C255,947.4,56.9,749.3,56.9,504.3C56.9,259.3,255,59,500,59c245,0,443.1,198.1,443.1,443.1c0,74.6-17,144.9-51.1,206.7l0,0c0,2.1-2.1,4.3-2.1,6.4c0,12.8,10.7,21.3,21.3,21.3c8.5,0,17-6.4,19.2-14.9l0,0C968.7,657.7,990,581,990,500L990,500z"/><path d="M721.6,715.2L721.6,715.2C721.6,713,721.6,713,721.6,715.2c0-2.1,0-2.1-2.1-4.3c-23.4-66-66-112.9-132.1-138.5c51.1-29.8,85.2-85.2,85.2-149.1c0-95.9-76.7-172.6-172.6-172.6c-95.9,0-172.6,76.7-172.6,172.6c0,63.9,34.1,119.3,85.2,149.1C348.7,598,304,649.1,282.7,713c0,0,0,0,0,2.1c0,2.1,0,2.1-2.1,2.1l0,0v2.1c0,10.7,8.5,17,17,17c8.5,0,14.9-4.3,17-10.7C344.5,651.3,416.9,598,502.1,598c85.2,0,159.8,55.4,187.5,130l0,0c0,0,0,0,0,2.1l0,0c2.1,6.4,8.5,8.5,14.9,8.5c10.7,0,17-8.5,17-17C721.6,717.3,721.6,715.2,721.6,715.2L721.6,715.2z M367.9,423.3c0-72.4,59.7-132.1,132.1-132.1s132.1,59.7,132.1,132.1S572.4,555.4,500,555.4C427.6,553.3,367.9,495.7,367.9,423.3L367.9,423.3z"/></g>
</svg>